<mxfile host="app.diagrams.net" modified="2023-07-09T14:19:59.702Z" agent="Mozilla/5.0 (Windows NT 10.0; Win64; x64) AppleWebKit/537.36 (KHTML, like Gecko) Chrome/114.0.0.0 Safari/537.36" etag="pIssOgUxPZZ-L1uij7tp" version="21.6.1" type="google" pages="2">
  <diagram name="CU001" id="MRzaejgAgB3mzDsYIuU0">
    <mxGraphModel grid="0" page="0" gridSize="10" guides="1" tooltips="1" connect="1" arrows="1" fold="1" pageScale="1" pageWidth="827" pageHeight="1169" math="0" shadow="0">
      <root>
        <mxCell id="0" />
        <mxCell id="1" parent="0" />
        <mxCell id="dmn2BpxPJqf4cFkLXR8q-2" value="" style="rounded=0;whiteSpace=wrap;html=1;" vertex="1" parent="1">
          <mxGeometry x="-218" y="5" width="619" height="529" as="geometry" />
        </mxCell>
        <mxCell id="dmn2BpxPJqf4cFkLXR8q-9" style="edgeStyle=orthogonalEdgeStyle;rounded=0;orthogonalLoop=1;jettySize=auto;html=1;exitX=0.5;exitY=0.5;exitDx=0;exitDy=0;exitPerimeter=0;endArrow=none;endFill=0;" edge="1" parent="1" source="dmn2BpxPJqf4cFkLXR8q-1" target="dmn2BpxPJqf4cFkLXR8q-8">
          <mxGeometry relative="1" as="geometry" />
        </mxCell>
        <mxCell id="dmn2BpxPJqf4cFkLXR8q-1" value="Ciudadano" style="shape=umlActor;verticalLabelPosition=bottom;verticalAlign=top;html=1;outlineConnect=0;" vertex="1" parent="1">
          <mxGeometry x="-310" y="24" width="30" height="60" as="geometry" />
        </mxCell>
        <mxCell id="dmn2BpxPJqf4cFkLXR8q-20" style="edgeStyle=orthogonalEdgeStyle;rounded=0;orthogonalLoop=1;jettySize=auto;html=1;endArrow=none;endFill=0;" edge="1" parent="1" source="dmn2BpxPJqf4cFkLXR8q-3" target="dmn2BpxPJqf4cFkLXR8q-8">
          <mxGeometry relative="1" as="geometry" />
        </mxCell>
        <mxCell id="dmn2BpxPJqf4cFkLXR8q-3" value="Funcionario" style="shape=umlActor;verticalLabelPosition=bottom;verticalAlign=top;html=1;outlineConnect=0;" vertex="1" parent="1">
          <mxGeometry x="-310" y="172" width="30" height="60" as="geometry" />
        </mxCell>
        <mxCell id="dmn2BpxPJqf4cFkLXR8q-7" value="Gub.uy" style="rounded=1;whiteSpace=wrap;html=1;" vertex="1" parent="1">
          <mxGeometry x="446" y="69.25" width="99" height="111" as="geometry" />
        </mxCell>
        <mxCell id="dmn2BpxPJqf4cFkLXR8q-10" style="edgeStyle=orthogonalEdgeStyle;rounded=0;orthogonalLoop=1;jettySize=auto;html=1;endArrow=none;endFill=0;" edge="1" parent="1" source="dmn2BpxPJqf4cFkLXR8q-8" target="dmn2BpxPJqf4cFkLXR8q-11">
          <mxGeometry relative="1" as="geometry" />
        </mxCell>
        <mxCell id="dmn2BpxPJqf4cFkLXR8q-8" value="Login" style="ellipse;whiteSpace=wrap;html=1;" vertex="1" parent="1">
          <mxGeometry x="-129" y="84.5" width="120" height="80" as="geometry" />
        </mxCell>
        <mxCell id="dmn2BpxPJqf4cFkLXR8q-12" style="edgeStyle=orthogonalEdgeStyle;rounded=0;orthogonalLoop=1;jettySize=auto;html=1;endArrow=none;endFill=0;" edge="1" parent="1" source="dmn2BpxPJqf4cFkLXR8q-11" target="dmn2BpxPJqf4cFkLXR8q-7">
          <mxGeometry relative="1" as="geometry">
            <Array as="points">
              <mxPoint x="421" y="119" />
              <mxPoint x="421" y="119" />
            </Array>
          </mxGeometry>
        </mxCell>
        <mxCell id="dmn2BpxPJqf4cFkLXR8q-14" style="edgeStyle=orthogonalEdgeStyle;rounded=0;orthogonalLoop=1;jettySize=auto;html=1;endArrow=none;endFill=0;" edge="1" parent="1" source="dmn2BpxPJqf4cFkLXR8q-11" target="dmn2BpxPJqf4cFkLXR8q-13">
          <mxGeometry relative="1" as="geometry" />
        </mxCell>
        <mxCell id="dmn2BpxPJqf4cFkLXR8q-11" value="obtenerAccessToken" style="ellipse;whiteSpace=wrap;html=1;" vertex="1" parent="1">
          <mxGeometry x="155" y="84.5" width="149" height="80.5" as="geometry" />
        </mxCell>
        <mxCell id="dmn2BpxPJqf4cFkLXR8q-18" style="edgeStyle=orthogonalEdgeStyle;rounded=0;orthogonalLoop=1;jettySize=auto;html=1;endArrow=none;endFill=0;" edge="1" parent="1" source="dmn2BpxPJqf4cFkLXR8q-13" target="dmn2BpxPJqf4cFkLXR8q-16">
          <mxGeometry relative="1" as="geometry" />
        </mxCell>
        <mxCell id="dmn2BpxPJqf4cFkLXR8q-19" style="edgeStyle=orthogonalEdgeStyle;rounded=0;orthogonalLoop=1;jettySize=auto;html=1;endArrow=none;endFill=0;" edge="1" parent="1" source="dmn2BpxPJqf4cFkLXR8q-13" target="dmn2BpxPJqf4cFkLXR8q-17">
          <mxGeometry relative="1" as="geometry">
            <Array as="points">
              <mxPoint x="230" y="498" />
            </Array>
          </mxGeometry>
        </mxCell>
        <mxCell id="dmn2BpxPJqf4cFkLXR8q-13" value="ContrastarDatos" style="ellipse;whiteSpace=wrap;html=1;" vertex="1" parent="1">
          <mxGeometry x="169.5" y="275.5" width="120" height="80" as="geometry" />
        </mxCell>
        <mxCell id="dmn2BpxPJqf4cFkLXR8q-16" value="Base de Datos" style="rounded=1;whiteSpace=wrap;html=1;" vertex="1" parent="1">
          <mxGeometry x="446" y="260" width="99" height="111" as="geometry" />
        </mxCell>
        <mxCell id="dmn2BpxPJqf4cFkLXR8q-17" value="PDI" style="rounded=1;whiteSpace=wrap;html=1;" vertex="1" parent="1">
          <mxGeometry x="446" y="442" width="99" height="111" as="geometry" />
        </mxCell>
        <mxCell id="dmn2BpxPJqf4cFkLXR8q-21" value="Componente central" style="text;html=1;strokeColor=none;fillColor=none;align=center;verticalAlign=middle;whiteSpace=wrap;rounded=0;fontStyle=1" vertex="1" parent="1">
          <mxGeometry x="29" width="158" height="30" as="geometry" />
        </mxCell>
      </root>
    </mxGraphModel>
  </diagram>
  <diagram id="bv_wp0pNpaeSbdP_9SF9" name="CU002">
    <mxGraphModel grid="0" page="0" gridSize="10" guides="1" tooltips="1" connect="1" arrows="1" fold="1" pageScale="1" pageWidth="827" pageHeight="1169" math="0" shadow="0">
      <root>
        <mxCell id="0" />
        <mxCell id="1" parent="0" />
        <mxCell id="hVBXI-9KDClC2pB6W86P-1" value="" style="rounded=0;whiteSpace=wrap;html=1;" vertex="1" parent="1">
          <mxGeometry x="-218" y="5" width="619" height="475" as="geometry" />
        </mxCell>
        <mxCell id="hVBXI-9KDClC2pB6W86P-2" style="edgeStyle=orthogonalEdgeStyle;rounded=0;orthogonalLoop=1;jettySize=auto;html=1;exitX=0.5;exitY=0.5;exitDx=0;exitDy=0;exitPerimeter=0;endArrow=none;endFill=0;" edge="1" parent="1" source="hVBXI-9KDClC2pB6W86P-3" target="hVBXI-9KDClC2pB6W86P-8">
          <mxGeometry relative="1" as="geometry" />
        </mxCell>
        <mxCell id="hVBXI-9KDClC2pB6W86P-19" style="edgeStyle=orthogonalEdgeStyle;rounded=0;orthogonalLoop=1;jettySize=auto;html=1;endArrow=none;endFill=0;" edge="1" parent="1" source="hVBXI-9KDClC2pB6W86P-3" target="hVBXI-9KDClC2pB6W86P-18">
          <mxGeometry relative="1" as="geometry">
            <Array as="points">
              <mxPoint x="-295" y="389" />
            </Array>
          </mxGeometry>
        </mxCell>
        <mxCell id="hVBXI-9KDClC2pB6W86P-3" value="Conductores" style="shape=umlActor;verticalLabelPosition=bottom;verticalAlign=top;html=1;outlineConnect=0;" vertex="1" parent="1">
          <mxGeometry x="-316" y="94.5" width="30" height="60" as="geometry" />
        </mxCell>
        <mxCell id="hVBXI-9KDClC2pB6W86P-6" value="Nodo Tracking" style="rounded=1;whiteSpace=wrap;html=1;" vertex="1" parent="1">
          <mxGeometry x="446" y="69.25" width="99" height="111" as="geometry" />
        </mxCell>
        <mxCell id="hVBXI-9KDClC2pB6W86P-7" style="edgeStyle=orthogonalEdgeStyle;rounded=0;orthogonalLoop=1;jettySize=auto;html=1;endArrow=none;endFill=0;" edge="1" parent="1" source="hVBXI-9KDClC2pB6W86P-8" target="hVBXI-9KDClC2pB6W86P-11">
          <mxGeometry relative="1" as="geometry" />
        </mxCell>
        <mxCell id="hVBXI-9KDClC2pB6W86P-8" value="IniciarViaje&lt;br&gt;&lt;u&gt;&amp;nbsp; &amp;nbsp; &amp;nbsp; &amp;nbsp; &amp;nbsp; &amp;nbsp; &amp;nbsp; &amp;nbsp; &amp;nbsp; &amp;nbsp; &amp;nbsp; &amp;nbsp; &lt;/u&gt;&lt;br&gt;Cambia viaje a activo&amp;nbsp;&amp;nbsp;" style="ellipse;whiteSpace=wrap;html=1;" vertex="1" parent="1">
          <mxGeometry x="-129" y="84.5" width="170" height="80.5" as="geometry" />
        </mxCell>
        <mxCell id="hVBXI-9KDClC2pB6W86P-9" style="edgeStyle=orthogonalEdgeStyle;rounded=0;orthogonalLoop=1;jettySize=auto;html=1;endArrow=none;endFill=0;" edge="1" parent="1" source="hVBXI-9KDClC2pB6W86P-11" target="hVBXI-9KDClC2pB6W86P-6">
          <mxGeometry relative="1" as="geometry">
            <Array as="points">
              <mxPoint x="421" y="119" />
              <mxPoint x="421" y="119" />
            </Array>
          </mxGeometry>
        </mxCell>
        <mxCell id="hVBXI-9KDClC2pB6W86P-22" style="edgeStyle=orthogonalEdgeStyle;rounded=0;orthogonalLoop=1;jettySize=auto;html=1;" edge="1" parent="1" source="hVBXI-9KDClC2pB6W86P-11" target="hVBXI-9KDClC2pB6W86P-21">
          <mxGeometry relative="1" as="geometry">
            <Array as="points">
              <mxPoint x="230" y="255" />
            </Array>
          </mxGeometry>
        </mxCell>
        <mxCell id="hVBXI-9KDClC2pB6W86P-11" value="obtenerPosiciÃ³n" style="ellipse;whiteSpace=wrap;html=1;" vertex="1" parent="1">
          <mxGeometry x="155" y="84.5" width="149" height="80.5" as="geometry" />
        </mxCell>
        <mxCell id="hVBXI-9KDClC2pB6W86P-12" style="edgeStyle=orthogonalEdgeStyle;rounded=0;orthogonalLoop=1;jettySize=auto;html=1;endArrow=none;endFill=0;" edge="1" parent="1" source="hVBXI-9KDClC2pB6W86P-14" target="hVBXI-9KDClC2pB6W86P-15">
          <mxGeometry relative="1" as="geometry" />
        </mxCell>
        <mxCell id="hVBXI-9KDClC2pB6W86P-14" value="obtenerPesadas" style="ellipse;whiteSpace=wrap;html=1;" vertex="1" parent="1">
          <mxGeometry x="169.5" y="348.5" width="120" height="80" as="geometry" />
        </mxCell>
        <mxCell id="hVBXI-9KDClC2pB6W86P-15" value="Nodo Balanza" style="rounded=1;whiteSpace=wrap;html=1;" vertex="1" parent="1">
          <mxGeometry x="446" y="333" width="99" height="111" as="geometry" />
        </mxCell>
        <mxCell id="hVBXI-9KDClC2pB6W86P-17" value="Componente central" style="text;html=1;strokeColor=none;fillColor=none;align=center;verticalAlign=middle;whiteSpace=wrap;rounded=0;fontStyle=1" vertex="1" parent="1">
          <mxGeometry x="29" width="158" height="30" as="geometry" />
        </mxCell>
        <mxCell id="hVBXI-9KDClC2pB6W86P-20" style="edgeStyle=orthogonalEdgeStyle;rounded=0;orthogonalLoop=1;jettySize=auto;html=1;endArrow=none;endFill=0;" edge="1" parent="1" source="hVBXI-9KDClC2pB6W86P-18" target="hVBXI-9KDClC2pB6W86P-14">
          <mxGeometry relative="1" as="geometry" />
        </mxCell>
        <mxCell id="hVBXI-9KDClC2pB6W86P-18" value="finalizarViaje&lt;br&gt;&lt;u style=&quot;border-color: var(--border-color);&quot;&gt;&amp;nbsp; &amp;nbsp; &amp;nbsp; &amp;nbsp; &amp;nbsp; &amp;nbsp; &amp;nbsp; &amp;nbsp; &amp;nbsp; &amp;nbsp; &amp;nbsp; &amp;nbsp;&lt;/u&gt;&lt;br style=&quot;border-color: var(--border-color);&quot;&gt;Cambia viaje a inactivo&amp;nbsp;" style="ellipse;whiteSpace=wrap;html=1;" vertex="1" parent="1">
          <mxGeometry x="-127.5" y="348.5" width="161.5" height="79.5" as="geometry" />
        </mxCell>
        <mxCell id="hVBXI-9KDClC2pB6W86P-21" value="Base de Datos" style="rounded=1;whiteSpace=wrap;html=1;" vertex="1" parent="1">
          <mxGeometry x="446" y="199" width="99" height="111" as="geometry" />
        </mxCell>
        <mxCell id="ehODCd6McHZSSvJAuQW6-1" value="" style="shape=image;verticalLabelPosition=bottom;labelBackgroundColor=default;verticalAlign=top;aspect=fixed;imageAspect=0;image=https://cdn.icon-icons.com/icons2/946/PNG/512/cellphone-rounded-outline_icon-icons.com_74036.png;" vertex="1" parent="1">
          <mxGeometry x="-353" y="53.5" width="41" height="41" as="geometry" />
        </mxCell>
      </root>
    </mxGraphModel>
  </diagram>
</mxfile>
